<?xml version="1.0" standalone="no"?>
<svg version="1.0" xmlns="http://www.w3.org/2000/svg"
 width="920.000000pt" height="920.000000pt" viewBox="0 0 920.000000 920.000000"
 preserveAspectRatio="xMidYMid meet">

<g transform="translate(0.000000,920.000000) scale(0.100000,-0.100000)"
fill="#2c6d96" stroke="none">
<path d="M4428 9190 c-346 -59 -630 -334 -703 -681 -29 -137 -13 -312 39 -425
35 -76 126 -207 281 -404 76 -96 165 -215 198 -264 72 -107 149 -266 173 -356
23 -89 23 -237 0 -315 -38 -128 -136 -273 -203 -301 -100 -42 -215 14 -244
118 -14 53 -5 90 41 168 52 87 60 111 60 177 l0 55 -42 -7 c-60 -11 -247 -71
-348 -112 -100 -42 -175 -78 -287 -140 l-81 -46 5 -36 c3 -20 14 -53 25 -74
20 -41 29 -42 90 -11 90 46 212 -14 243 -120 26 -87 -7 -162 -92 -208 -221
-120 -462 -45 -568 177 -83 173 -86 411 -10 636 35 103 65 255 65 331 -1 209
-110 453 -270 601 -179 166 -366 241 -595 240 -229 -2 -416 -77 -584 -237
-113 -109 -204 -258 -243 -405 -30 -110 -30 -315 1 -426 57 -210 194 -398 373
-508 97 -60 121 -69 338 -121 249 -60 367 -98 480 -157 212 -111 349 -277 415
-505 46 -160 27 -259 -63 -311 -34 -20 -60 -27 -98 -27 -97 0 -159 66 -183
197 -11 61 -55 170 -76 187 -10 9 -26 -12 -69 -88 -149 -265 -244 -549 -287
-852 -20 -140 -17 -484 6 -640 24 -166 23 -175 -11 -211 -38 -40 -67 -55 -139
-70 l-60 -12 -105 51 c-134 65 -215 85 -355 86 -141 1 -240 -22 -370 -83 -235
-112 -410 -322 -476 -572 -32 -119 -32 -291 0 -408 55 -205 192 -393 375 -515
128 -85 301 -136 460 -136 276 0 525 128 709 363 139 177 300 287 422 287 54
0 153 -62 266 -167 325 -300 746 -516 1175 -603 67 -13 102 -16 109 -9 5 5 10
51 10 102 0 104 -17 153 -95 267 -50 74 -64 118 -55 177 7 48 49 104 96 129
35 18 110 18 152 0 88 -36 225 -269 262 -444 49 -227 -25 -445 -220 -651 -67
-71 -228 -211 -292 -254 -173 -117 -303 -315 -348 -527 -8 -39 -15 -117 -15
-173 0 -504 461 -913 955 -848 200 27 370 115 516 268 167 175 248 389 236
623 -9 190 -77 402 -275 860 -238 552 -281 675 -289 840 -3 63 -1 121 6 145
15 56 62 127 107 161 33 25 46 29 104 29 55 0 73 -4 107 -27 75 -50 101 -164
55 -242 -21 -35 -22 -43 -12 -93 10 -46 52 -180 75 -235 10 -26 24 -23 145 27
431 176 815 481 1071 853 l53 76 -44 38 c-53 47 -77 54 -150 40 -132 -24 -230
46 -230 165 0 133 96 203 279 203 86 0 140 -14 232 -60 76 -39 204 -163 268
-260 61 -94 160 -302 226 -475 95 -251 117 -285 248 -390 94 -75 248 -155 357
-185 209 -58 430 -22 637 102 74 44 194 157 248 233 177 247 209 567 86 840
-80 176 -230 330 -406 418 -126 63 -194 79 -355 84 -194 7 -233 -2 -414 -92
-166 -82 -312 -135 -438 -161 -194 -39 -476 19 -658 136 -102 66 -126 194 -53
281 61 72 144 78 257 18 80 -42 232 -87 246 -72 13 13 30 175 36 345 6 140 8
154 28 170 64 51 277 131 451 169 138 29 423 38 511 15 190 -49 437 10 600
143 334 272 335 801 2 1057 -132 102 -274 148 -458 149 -112 0 -134 -3 -214
-29 -158 -52 -267 -140 -362 -292 -67 -107 -171 -178 -351 -241 -69 -24 -93
-27 -213 -27 -131 -1 -136 0 -188 29 -33 17 -66 46 -83 72 -16 23 -35 46 -43
50 -7 4 -45 56 -83 114 -289 432 -690 748 -1172 925 -164 60 -236 104 -286
172 -53 73 -70 131 -68 242 2 176 56 312 214 540 52 75 111 172 131 215 242
522 -200 1162 -795 1154 -45 -1 -103 -5 -129 -9z m837 -3205 c103 -26 201 -81
282 -158 138 -131 198 -271 197 -462 0 -77 -5 -128 -18 -170 -62 -209 -219
-367 -436 -441 -78 -27 -282 -27 -360 0 -197 67 -342 202 -410 379 -96 249
-44 495 145 683 87 87 177 140 285 168 74 20 240 20 315 1z m-1382 -1556 c284
-95 402 -423 242 -674 -124 -194 -370 -265 -578 -167 -281 133 -346 508 -127
730 52 52 129 98 199 118 74 20 192 17 264 -7z m1593 -350 c62 -23 133 -91
166 -157 30 -62 37 -180 14 -249 -27 -80 -82 -143 -160 -183 -61 -31 -77 -35
-145 -35 -133 1 -235 65 -293 183 -29 59 -33 76 -32 147 0 96 25 157 92 223
92 93 227 119 358 71z"/>
<path d="M6620 8076 c-228 -49 -426 -203 -524 -409 -45 -94 -64 -171 -71 -287
-13 -227 -22 -274 -62 -333 -15 -22 -22 -41 -17 -46 5 -4 61 -41 124 -83 154
-102 273 -198 402 -324 122 -121 123 -121 189 -43 50 60 84 79 142 79 24 0 79
9 122 20 214 55 387 196 484 395 52 106 73 198 73 315 0 216 -96 421 -261 559
-70 58 -199 124 -286 146 -86 22 -237 27 -315 11z"/>
<path d="M870 5825 c-36 -8 -108 -36 -160 -61 -77 -38 -110 -62 -176 -128
-407 -408 -169 -1097 406 -1176 142 -19 240 3 461 105 177 83 233 99 342 98
l87 0 0 87 c0 186 61 526 130 724 24 72 18 80 -55 70 -95 -13 -208 -9 -268 9
-47 15 -74 32 -138 92 -86 81 -169 132 -269 165 -85 29 -266 36 -360 15z"/>
<path d="M6525 2616 c-44 -19 -595 -374 -628 -405 -43 -39 -60 -79 -59 -138 1
-85 55 -156 131 -169 49 -9 73 -33 109 -112 45 -97 61 -170 72 -322 10 -154
26 -213 82 -322 134 -259 456 -397 758 -326 25 5 86 30 135 53 158 76 273 205
337 377 57 155 49 358 -20 509 -66 146 -175 250 -411 393 -214 131 -247 168
-261 298 -6 51 -14 77 -35 104 -49 64 -141 90 -210 60z"/>
<path d="M2780 2463 c-74 -92 -106 -113 -212 -134 -217 -43 -370 -144 -471
-311 -64 -105 -82 -181 -82 -338 0 -122 3 -143 28 -217 76 -221 271 -401 497
-458 86 -22 246 -22 336 0 191 47 353 174 439 345 47 93 64 160 76 285 14 162
47 248 145 378 24 31 44 61 44 65 0 4 -42 24 -93 46 -175 73 -418 215 -578
337 -43 32 -79 59 -81 59 -2 0 -23 -26 -48 -57z"/>
</g>
</svg>
